{"title":"Mythbusters S10E08 XVID HDTV 29fps M-BYTE","uid":7281695,"size":541490402,"categoryP":"video","categoryS":"tv_shows","magnet":"?xt=urn:btih:689bf0e759391062124f080a8d1f6ba5bbd6d9c4&amp;dn=Mythbusters+S10E08+XVID+HDTV+29fps+M-BYTE&amp;tr=udp%3A%2F%2Ftracker.openbittorrent.com%3A80&amp;tr=udp%3A%2F%2Fopen.demonii.com%3A1337&amp;tr=udp%3A%2F%2Ftracker.coppersurfer.tk%3A6969&amp;tr=udp%3A%2F%2Fexodus.desync.com%3A6969","seeders":1,"leechers":1,"uploader":"jianweit","files":1,"time":1337451589,"description":"i converted a mp4 to xvid for those who want/need it.\n\nPLS seed \n\nenjoy!!\n\nGeneral\nComplete name                    : Mythbusters.S10E08.x264.iTunes.29fps.M-BYTE.tv-links.eu.avi\nFormat                           : AVI\nFormat/Info                      : Audio Video Interleave\nFile size                        : 516 MiB\nDuration                         : 42mn 33s\nOverall bit rate                 : 1 696 Kbps\n\nVideo\nID                               : 0\nFormat                           : MPEG-4 Visual\nFormat profile                   : Simple@L3\nFormat settings, BVOP            : No\nFormat settings, QPel            : No\nFormat settings, GMC             : No warppoints\nFormat settings, Matrix          : Default (H.263)\nCodec ID                         : XVID\nCodec ID/Hint                    : XviD\nDuration                         : 42mn 33s\nBit rate                         : 1 551 Kbps\nWidth                            : 852 pixels\nHeight                           : 480 pixels\nDisplay aspect ratio             : 16:9\nFrame rate                       : 29.970 fps\nOriginal frame rate              : 29.000 fps\nColor space                      : YUV\nChroma subsampling               : 4:2:0\nBit depth                        : 8 bits\nScan type                        : Progressive\nCompression mode                 : Lossy\nBits/(Pixel*Frame)               : 0.127\nStream size                      : 472 MiB (91%)\nWriting library                  : XviD 1.2.1 (UTC 2008-12-04)\n\nAudio\nID                               : 1\nFormat                           : MPEG Audio\nFormat version                   : Version 1\nFormat profile                   : Layer 3\nMode                             : Joint stereo\nMode extension                   : MS Stereo\nCodec ID                         : 55\nCodec ID/Hint                    : MP3\nDuration                         : 42mn 33s\nBit rate mode                    : Constant\nBit rate                         : 128 Kbps\nChannel(s)                       : 2 channels\nSampling rate                    : 44.1 KHz\nCompression mode                 : Lossy\nStream size                      : 39.0 MiB (8%)\nAlignment                        : Aligned on interleaves\nInterleave, duration             : 26 ms (0.78 video frame)\nWriting library                  : LAME3.98.2","torrent":{"xt":"urn:btih:689bf0e759391062124f080a8d1f6ba5bbd6d9c4","amp;dn":"Mythbusters+S10E08+XVID+HDTV+29fps+M-BYTE","amp;tr":["udp%3A%2F%2Ftracker.openbittorrent.com%3A80","udp%3A%2F%2Fopen.demonii.com%3A1337","udp%3A%2F%2Ftracker.coppersurfer.tk%3A6969","udp%3A%2F%2Fexodus.desync.com%3A6969"],"infoHash":"689bf0e759391062124f080a8d1f6ba5bbd6d9c4","infoHashBuffer":{"type":"Buffer","data":[104,155,240,231,89,57,16,98,18,79,8,10,141,31,107,165,187,214,217,196]},"announce":[],"urlList":[]}}